<svg xmlns="http://www.w3.org/2000/svg" xmlns:xlink="http://www.w3.org/1999/xlink" version="1.1" id="Слой_1" x="0px" y="0px" width="44px" height="44px" viewBox="0 0 44 44" enable-background="new 0 0 44 44" xml:space="preserve">
<path fill="#ffffff" d="M22,44c12.15,0,22-9.85,22-22C44,9.849,34.15,0,22,0C9.849,0,0,9.849,0,22C0,34.15,9.849,44,22,44z M22,43.001  C10.402,43.001,1,33.6,1,22C1,10.402,10.402,1,22,1c11.6,0,21.001,9.402,21.001,21C43.001,33.6,33.6,43.001,22,43.001z   M10.082,21.091l0.132-0.119v-6.534c0-1.321,1.092-2.413,2.413-2.413h18.748c1.32,0,2.414,1.092,2.414,2.413v6.534l0.132,0.119  c0.494,0.448,0.806,1.084,0.806,1.784v8.038h-3.886v-1.876H13.165v1.876H9.277v-8.038C9.277,22.175,9.588,21.539,10.082,21.091  L10.082,21.091z M30.038,20.463h2.675v-6.025c0-0.741-0.597-1.338-1.338-1.338h-18.75c-0.741,0-1.338,0.597-1.338,1.338v6.025h2.674  v-1.338c0-1.322,1.092-2.413,2.414-2.413h3.75c0.594,0.002,1.167,0.226,1.605,0.627l0.269,0.245l0.269-0.243  c0.432-0.389,0.996-0.628,1.607-0.628h3.75c1.322,0,2.413,1.092,2.413,2.414V20.463L30.038,20.463z M15.039,20.463h6.425v-1.338  c0-0.741-0.597-1.338-1.338-1.338h-3.75c-0.741,0-1.338,0.597-1.338,1.338L15.039,20.463L15.039,20.463z M22.538,20.463h6.426  v-1.338c0-0.741-0.598-1.338-1.339-1.338h-3.75c-0.74,0-1.337,0.597-1.337,1.338V20.463z M31.912,29.838h1.738v-6.963  c0-0.741-0.598-1.338-1.338-1.338H11.688c-0.741,0-1.338,0.597-1.338,1.338v6.963h1.738v-1.876h19.824V29.838z"/>
</svg>