<svg xmlns="http://www.w3.org/2000/svg" xmlns:xlink="http://www.w3.org/1999/xlink" version="1.1" id="Слой_1" x="0px" y="0px" width="44px" height="44px" viewBox="0 0 44 44" enable-background="new 0 0 44 44" xml:space="preserve">
<path fill="#ffffff" d="M22,43.001C10.402,43.001,1,33.6,1,22C1,10.402,10.402,1,22,1c11.6,0,21.001,9.402,21.001,21  C43.001,33.6,33.6,43.001,22,43.001z M22,44c12.15,0,22-9.85,22-22C44,9.849,34.15,0,22,0C9.849,0,0,9.849,0,22  C0,34.15,9.849,44,22,44z M17.963,33.966v-23h-1v23H17.963z M17.509,12.355h5.034c0,0,0.248,0,0.496,0  c0.824,0,2.563,0.167,3.961,0.891c0.744,0.412,1.322,0.892,1.816,1.625c0.496,0.734,0.744,1.704,0.744,3.094  c0,1.391-0.326,2.359-0.744,3.094c-0.656,1.136-1.729,1.703-2.889,2.114c-1.072,0.323-2.226,0.41-2.89,0.41  c-0.168,0-0.327,0-0.416,0h-8.66v1.382h8.5V24.23l-0.079,0.734c0,0,0.247,0,0.655,0c0.994,0,2.89-0.078,4.616-1.057  c0.904-0.49,1.729-1.137,2.313-2.115c0.575-0.979,0.992-2.281,0.992-3.828c0-1.547-0.328-2.849-0.992-3.828  c-0.903-1.469-2.313-2.282-3.636-2.683c-1.318-0.411-2.561-0.489-3.296-0.489c-0.416,0-0.656,0-0.656,0l0.08,0.734v-0.733h-4.954  L17.509,12.355L17.509,12.355z M13.963,28.967h9v-1.001h-9V28.967z"/>
</svg>