<svg width="40" height="42" viewBox="0 0 40 42" fill="none" xmlns="http://www.w3.org/2000/svg">
<path d="M0 20C0 8.9543 8.95431 0 20 0V0C31.0457 0 40 8.95431 40 20V22C40 33.0457 31.0457 42 20 42V42C8.95431 42 0 33.0457 0 22V20Z" fill="#1877F2"/>
<path d="M27.7852 27.0703L28.6719 21H23.125V17.0625C23.125 15.4014 23.8984 13.7812 26.3828 13.7812H28.9062V8.61328C28.9062 8.61328 26.6172 8.20312 24.4297 8.20312C19.8594 8.20312 16.875 11.1111 16.875 16.3734V21H11.7969V27.0703H16.875V41.7457C17.8945 41.9139 18.9375 42 20 42C21.0625 42 22.1055 41.9139 23.125 41.7457V27.0703H27.7852Z" fill="white"/>
</svg>
