<svg width="42" height="40" viewBox="0 0 42 40" fill="none" xmlns="http://www.w3.org/2000/svg">
<path d="M0 20C0 8.95431 8.95431 0 20 0H22C33.0457 0 42 8.95431 42 20C42 31.0457 33.0457 40 22 40H20C8.9543 40 0 31.0457 0 20Z" fill="black"/>
<path d="M21.0034 10.163C24.3702 10.163 24.7654 10.1773 26.0961 10.2345C27.3268 10.2869 27.9921 10.4823 28.4373 10.649C29.0277 10.8682 29.4479 11.1255 29.8881 11.5447C30.3283 11.964 30.6035 12.3642 30.8286 12.9264C30.9987 13.3504 31.2088 13.9841 31.2638 15.1562C31.3239 16.4235 31.3389 16.7999 31.3389 20.0064C31.3389 23.2128 31.3239 23.5892 31.2638 24.8565C31.2088 26.0286 31.0037 26.6623 30.8286 27.0863C30.5985 27.6485 30.3283 28.0487 29.8881 28.468C29.4479 28.8872 29.0277 29.1493 28.4373 29.3637C27.9921 29.5257 27.3268 29.7258 26.0961 29.7782C24.7654 29.8354 24.3702 29.8497 21.0034 29.8497C17.6366 29.8497 17.2414 29.8354 15.9107 29.7782C14.6801 29.7258 14.0147 29.5304 13.5695 29.3637C12.9792 29.1445 12.5589 28.8872 12.1187 28.468C11.6785 28.0487 11.4033 27.6485 11.1782 27.0863C11.0081 26.6623 10.798 26.0286 10.743 24.8565C10.6829 23.5892 10.6679 23.2128 10.6679 20.0064C10.6679 16.7999 10.6829 16.4235 10.743 15.1562C10.798 13.9841 11.0031 13.3504 11.1782 12.9264C11.4083 12.3642 11.6785 11.964 12.1187 11.5447C12.5589 11.1255 12.9792 10.8634 13.5695 10.649C14.0147 10.487 14.6801 10.2869 15.9107 10.2345C17.2414 10.1726 17.6416 10.163 21.0034 10.163ZM21.0034 8C17.5816 8 17.1514 8.01429 15.8057 8.07147C14.4649 8.12864 13.5495 8.33351 12.749 8.6289C11.9186 8.93383 11.2182 9.34833 10.5179 10.0154C9.81748 10.6824 9.38726 11.3542 9.06208 12.1403C8.75192 12.9026 8.5368 13.7745 8.47677 15.0561C8.41674 16.333 8.40173 16.7427 8.40173 20.0016C8.40173 23.2605 8.41674 23.6702 8.47677 24.9518C8.5368 26.2287 8.75192 27.1006 9.06208 27.8677C9.38225 28.6585 9.81748 29.3256 10.5179 29.9926C11.2182 30.6596 11.9236 31.0693 12.749 31.379C13.5495 31.6744 14.4649 31.8793 15.8107 31.9365C17.1564 31.9936 17.5816 32.0079 21.0084 32.0079C24.4352 32.0079 24.8605 31.9936 26.2062 31.9365C27.5469 31.8793 28.4624 31.6744 29.2678 31.379C30.0982 31.0741 30.7986 30.6596 31.499 29.9926C32.1993 29.3256 32.6296 28.6538 32.9547 27.8677C33.2649 27.1053 33.48 26.2335 33.54 24.9518C33.6001 23.6702 33.6151 23.2652 33.6151 20.0016C33.6151 16.738 33.6001 16.333 33.54 15.0513C33.48 13.7745 33.2649 12.9026 32.9547 12.1355C32.6346 11.3446 32.1993 10.6776 31.499 10.0106C30.7986 9.34357 30.0932 8.93383 29.2678 8.62414C28.4674 8.32875 27.5519 8.12388 26.2062 8.0667C24.8554 8.01429 24.4252 8 21.0034 8Z" fill="white"/>
<path d="M21.0033 13.8411C17.4314 13.8411 14.5299 16.5997 14.5299 20.0062C14.5299 23.4128 17.4264 26.1714 21.0033 26.1714C24.5802 26.1714 27.4768 23.4128 27.4768 20.0062C27.4768 16.5997 24.5802 13.8411 21.0033 13.8411ZM21.0033 24.0036C18.6821 24.0036 16.8011 22.2122 16.8011 20.0015C16.8011 17.7908 18.6821 15.9993 21.0033 15.9993C23.3246 15.9993 25.2056 17.7908 25.2056 20.0015C25.2056 22.2122 23.3246 24.0036 21.0033 24.0036Z" fill="white"/>
<path d="M27.7319 15.0323C28.5663 15.0323 29.2427 14.3881 29.2427 13.5934C29.2427 12.7987 28.5663 12.1545 27.7319 12.1545C26.8975 12.1545 26.2211 12.7987 26.2211 13.5934C26.2211 14.3881 26.8975 15.0323 27.7319 15.0323Z" fill="white"/>
</svg>
