<svg width="135" height="40" viewBox="0 0 135 40" fill="none" xmlns="http://www.w3.org/2000/svg">
<path d="M20 0C31.0457 0 40 8.9543 40 20C40 21.7454 39.7764 23.4386 39.3563 25.0525L39.4 25.0399C36.8771 25.8165 34.2693 26.2849 31.6335 26.435C31.6335 25.3189 31.7006 24.2029 31.7006 23.0868C31.7117 10.8994 29.0074 1 25.655 1C23.5877 1 21.7774 4.63835 20.6599 10.1517C20.6598 10.2217 20.6884 10.2888 20.7391 10.3372C20.7897 10.3857 20.858 10.4114 20.9281 10.4084C21.0451 10.4051 21.1477 10.3294 21.1851 10.2186C22.0009 5.84369 23.2524 2.94194 24.6269 2.94194C27.0854 2.94194 29.0968 11.8704 29.0968 22.8301C29.0968 24.147 29.0708 25.4231 29.0186 26.6582C27.0295 26.7921 24.8728 26.8591 22.6155 26.8591C12.4352 26.8591 4.18825 25.4194 4.18825 23.6448C4.18825 21.8703 12.4352 20.4417 22.6155 20.4417H25.9679C26.0944 20.4417 26.197 20.3393 26.197 20.2129C26.197 20.0866 26.0944 19.9841 25.9679 19.9841C24.7052 19.9841 23.286 19.906 21.9673 19.906C10.3391 19.9386 0.930288 21.7867 0.421648 24.1055C0.478597 24.3778 0.540881 24.6478 0.608568 24.9156C2.07292 27.036 11.0393 28.668 21.9562 28.6782C24.3923 28.6782 26.7278 28.6001 28.9069 28.455C28.7626 31.8841 28.2379 35.2865 27.3424 38.6C27.3424 38.6 28.2029 38.254 28.9292 37.8857C29.417 37.6446 29.8908 37.3764 30.3484 37.0822C30.9803 34.1678 31.3838 31.2088 31.5553 28.2318C33.9579 28.0311 36.3433 27.6609 38.6936 27.124C38.9509 26.4502 39.1724 25.759 39.3563 25.0525L39.4 25.0399C39.4 25.0399 39.272 25.4554 39.131 25.9078L39.0536 26.156C38.886 26.6917 38.7295 27.1158 38.7295 27.1158C38.7175 27.1185 38.7055 27.1212 38.6936 27.124C35.8235 34.6521 28.5363 40 20 40C10.6504 40 2.7993 33.5845 0.608568 24.9156C0.471303 24.7152 0.4 24.5109 0.4 24.3033C0.4 24.237 0.407266 24.1711 0.421648 24.1055C0.145344 22.7806 0 21.4073 0 20C0 8.9543 8.9543 0 20 0Z" fill="white"/>
<path d="M56.66 14.24C56.66 14.1733 56.68 14.12 56.72 14.08C56.7733 14.0267 56.8333 14 56.9 14H59.24C59.3067 14 59.36 14.0267 59.4 14.08C59.4533 14.12 59.48 14.1733 59.48 14.24V27.76C59.48 27.8267 59.4533 27.8867 59.4 27.94C59.36 27.98 59.3067 28 59.24 28H56.9C56.8333 28 56.7733 27.98 56.72 27.94C56.68 27.8867 56.66 27.8267 56.66 27.76V22.24C56.66 22.1733 56.6267 22.14 56.56 22.14H52.14C52.0733 22.14 52.04 22.1733 52.04 22.24V27.76C52.04 27.8267 52.0133 27.8867 51.96 27.94C51.92 27.98 51.8667 28 51.8 28H49.46C49.3933 28 49.3333 27.98 49.28 27.94C49.24 27.8867 49.22 27.8267 49.22 27.76V14.24C49.22 14.1733 49.24 14.12 49.28 14.08C49.3333 14.0267 49.3933 14 49.46 14H51.8C51.8667 14 51.92 14.0267 51.96 14.08C52.0133 14.12 52.04 14.1733 52.04 14.24V19.62C52.04 19.6867 52.0733 19.72 52.14 19.72H56.56C56.6267 19.72 56.66 19.6867 56.66 19.62V14.24ZM66.1386 28.16C65.0186 28.16 64.0586 27.8667 63.2586 27.28C62.4586 26.6933 61.9119 25.8933 61.6186 24.88C61.4319 24.2533 61.3386 23.5733 61.3386 22.84C61.3386 22.0533 61.4319 21.3467 61.6186 20.72C61.9253 19.7333 62.4786 18.96 63.2786 18.4C64.0786 17.84 65.0386 17.56 66.1586 17.56C67.2519 17.56 68.1853 17.84 68.9586 18.4C69.7319 18.9467 70.2786 19.7133 70.5986 20.7C70.8119 21.3667 70.9186 22.0667 70.9186 22.8C70.9186 23.52 70.8253 24.1933 70.6386 24.82C70.3453 25.86 69.7986 26.68 68.9986 27.28C68.2119 27.8667 67.2586 28.16 66.1386 28.16ZM66.1386 25.74C66.5786 25.74 66.9519 25.6067 67.2586 25.34C67.5653 25.0733 67.7853 24.7067 67.9186 24.24C68.0253 23.8133 68.0786 23.3467 68.0786 22.84C68.0786 22.28 68.0253 21.8067 67.9186 21.42C67.7719 20.9667 67.5453 20.6133 67.2386 20.36C66.9319 20.1067 66.5586 19.98 66.1186 19.98C65.6653 19.98 65.2853 20.1067 64.9786 20.36C64.6853 20.6133 64.4719 20.9667 64.3386 21.42C64.2319 21.74 64.1786 22.2133 64.1786 22.84C64.1786 23.44 64.2253 23.9067 64.3186 24.24C64.4519 24.7067 64.6719 25.0733 64.9786 25.34C65.2986 25.6067 65.6853 25.74 66.1386 25.74ZM78.358 19.74C78.358 19.8067 78.3313 19.8667 78.278 19.92C78.238 19.96 78.1846 19.98 78.118 19.98H76.198C76.1313 19.98 76.098 20.0133 76.098 20.08V24.32C76.098 24.76 76.1846 25.0867 76.358 25.3C76.5446 25.5133 76.838 25.62 77.238 25.62H77.898C77.9646 25.62 78.018 25.6467 78.058 25.7C78.1113 25.74 78.138 25.7933 78.138 25.86V27.76C78.138 27.9067 78.058 27.9933 77.898 28.02C77.338 28.0467 76.938 28.06 76.698 28.06C75.5913 28.06 74.7646 27.88 74.218 27.52C73.6713 27.1467 73.3913 26.4533 73.378 25.44V20.08C73.378 20.0133 73.3446 19.98 73.278 19.98H72.138C72.0713 19.98 72.0113 19.96 71.958 19.92C71.918 19.8667 71.898 19.8067 71.898 19.74V17.96C71.898 17.8933 71.918 17.84 71.958 17.8C72.0113 17.7467 72.0713 17.72 72.138 17.72H73.278C73.3446 17.72 73.378 17.6867 73.378 17.62V15.24C73.378 15.1733 73.398 15.12 73.438 15.08C73.4913 15.0267 73.5513 15 73.618 15H75.858C75.9246 15 75.978 15.0267 76.018 15.08C76.0713 15.12 76.098 15.1733 76.098 15.24V17.62C76.098 17.6867 76.1313 17.72 76.198 17.72H78.118C78.1846 17.72 78.238 17.7467 78.278 17.8C78.3313 17.84 78.358 17.8933 78.358 17.96V19.74ZM89.0189 21.8C89.0989 22.3067 89.1256 22.8733 89.0989 23.5C89.0856 23.66 88.9989 23.74 88.8389 23.74H82.6589C82.5789 23.74 82.5522 23.7733 82.5789 23.84C82.6189 24.1067 82.6922 24.3733 82.7989 24.64C83.1456 25.3867 83.8522 25.76 84.9189 25.76C85.7722 25.7467 86.4456 25.4 86.9389 24.72C86.9922 24.64 87.0522 24.6 87.1189 24.6C87.1589 24.6 87.2056 24.6267 87.2589 24.68L88.6989 26.1C88.7656 26.1667 88.7989 26.2267 88.7989 26.28C88.7989 26.3067 88.7722 26.36 88.7189 26.44C88.2789 26.9867 87.7122 27.4133 87.0189 27.72C86.3256 28.0133 85.5656 28.16 84.7389 28.16C83.5922 28.16 82.6189 27.9 81.8189 27.38C81.0322 26.86 80.4656 26.1333 80.1189 25.2C79.8389 24.5333 79.6989 23.66 79.6989 22.58C79.6989 21.8467 79.7989 21.2 79.9989 20.64C80.3056 19.6933 80.8389 18.94 81.5989 18.38C82.3722 17.82 83.2856 17.54 84.3389 17.54C85.6722 17.54 86.7389 17.9267 87.5389 18.7C88.3522 19.4733 88.8456 20.5067 89.0189 21.8ZM84.3589 19.98C83.5189 19.98 82.9656 20.3733 82.6989 21.16C82.6456 21.3333 82.5989 21.5467 82.5589 21.8C82.5589 21.8667 82.5922 21.9 82.6589 21.9H86.1189C86.1989 21.9 86.2256 21.8667 86.1989 21.8C86.1322 21.4133 86.0989 21.2267 86.0989 21.24C85.9789 20.84 85.7656 20.5333 85.4589 20.32C85.1656 20.0933 84.7989 19.98 84.3589 19.98ZM91.0769 28C91.0102 28 90.9502 27.98 90.8969 27.94C90.8569 27.8867 90.8369 27.8267 90.8369 27.76V14.24C90.8369 14.1733 90.8569 14.12 90.8969 14.08C90.9502 14.0267 91.0102 14 91.0769 14H93.4169C93.4835 14 93.5369 14.0267 93.5769 14.08C93.6302 14.12 93.6569 14.1733 93.6569 14.24V27.76C93.6569 27.8267 93.6302 27.8867 93.5769 27.94C93.5369 27.98 93.4835 28 93.4169 28H91.0769ZM103.58 28C103.446 28 103.353 27.94 103.3 27.82L100.8 22.28C100.773 22.2267 100.733 22.2 100.68 22.2H98.8197C98.753 22.2 98.7197 22.2333 98.7197 22.3V27.76C98.7197 27.8267 98.693 27.8867 98.6397 27.94C98.5997 27.98 98.5464 28 98.4797 28H96.1397C96.073 28 96.013 27.98 95.9597 27.94C95.9197 27.8867 95.8997 27.8267 95.8997 27.76V14.24C95.8997 14.1733 95.9197 14.12 95.9597 14.08C96.013 14.0267 96.073 14 96.1397 14H101.86C102.713 14 103.46 14.1733 104.1 14.52C104.753 14.8667 105.253 15.36 105.6 16C105.96 16.64 106.14 17.38 106.14 18.22C106.14 19.1267 105.913 19.9067 105.46 20.56C105.006 21.2 104.373 21.6533 103.56 21.92C103.493 21.9467 103.473 21.9933 103.5 22.06L106.22 27.72C106.246 27.7733 106.26 27.8133 106.26 27.84C106.26 27.9467 106.186 28 106.04 28H103.58ZM98.8197 16.42C98.753 16.42 98.7197 16.4533 98.7197 16.52V19.94C98.7197 20.0067 98.753 20.04 98.8197 20.04H101.44C102 20.04 102.453 19.8733 102.8 19.54C103.16 19.2067 103.34 18.7733 103.34 18.24C103.34 17.7067 103.16 17.2733 102.8 16.94C102.453 16.5933 102 16.42 101.44 16.42H98.8197ZM112.408 28.16C111.288 28.16 110.328 27.8667 109.528 27.28C108.728 26.6933 108.181 25.8933 107.888 24.88C107.701 24.2533 107.608 23.5733 107.608 22.84C107.608 22.0533 107.701 21.3467 107.888 20.72C108.195 19.7333 108.748 18.96 109.548 18.4C110.348 17.84 111.308 17.56 112.428 17.56C113.521 17.56 114.455 17.84 115.228 18.4C116.001 18.9467 116.548 19.7133 116.868 20.7C117.081 21.3667 117.188 22.0667 117.188 22.8C117.188 23.52 117.095 24.1933 116.908 24.82C116.615 25.86 116.068 26.68 115.268 27.28C114.481 27.8667 113.528 28.16 112.408 28.16ZM112.408 25.74C112.848 25.74 113.221 25.6067 113.528 25.34C113.835 25.0733 114.055 24.7067 114.188 24.24C114.295 23.8133 114.348 23.3467 114.348 22.84C114.348 22.28 114.295 21.8067 114.188 21.42C114.041 20.9667 113.815 20.6133 113.508 20.36C113.201 20.1067 112.828 19.98 112.388 19.98C111.935 19.98 111.555 20.1067 111.248 20.36C110.955 20.6133 110.741 20.9667 110.608 21.42C110.501 21.74 110.448 22.2133 110.448 22.84C110.448 23.44 110.495 23.9067 110.588 24.24C110.721 24.7067 110.941 25.0733 111.248 25.34C111.568 25.6067 111.955 25.74 112.408 25.74ZM130.401 17.56C131.441 17.56 132.254 17.8733 132.841 18.5C133.428 19.1267 133.721 20.0067 133.721 21.14V27.76C133.721 27.8267 133.694 27.8867 133.641 27.94C133.601 27.98 133.548 28 133.481 28H131.141C131.074 28 131.014 27.98 130.961 27.94C130.921 27.8867 130.901 27.8267 130.901 27.76V21.76C130.901 21.2133 130.761 20.78 130.481 20.46C130.201 20.14 129.828 19.98 129.361 19.98C128.894 19.98 128.514 20.14 128.221 20.46C127.928 20.78 127.781 21.2067 127.781 21.74V27.76C127.781 27.8267 127.754 27.8867 127.701 27.94C127.661 27.98 127.608 28 127.541 28H125.221C125.154 28 125.094 27.98 125.041 27.94C125.001 27.8867 124.981 27.8267 124.981 27.76V21.76C124.981 21.2267 124.834 20.8 124.541 20.48C124.248 20.1467 123.868 19.98 123.401 19.98C122.974 19.98 122.614 20.1067 122.321 20.36C122.041 20.6133 121.874 20.9667 121.821 21.42V27.76C121.821 27.8267 121.794 27.8867 121.741 27.94C121.701 27.98 121.648 28 121.581 28H119.241C119.174 28 119.114 27.98 119.061 27.94C119.021 27.8867 119.001 27.8267 119.001 27.76V17.96C119.001 17.8933 119.021 17.84 119.061 17.8C119.114 17.7467 119.174 17.72 119.241 17.72H121.581C121.648 17.72 121.701 17.7467 121.741 17.8C121.794 17.84 121.821 17.8933 121.821 17.96V18.74C121.821 18.78 121.834 18.8067 121.861 18.82C121.888 18.8333 121.914 18.82 121.941 18.78C122.488 17.9667 123.334 17.56 124.481 17.56C125.148 17.56 125.728 17.7 126.221 17.98C126.728 18.26 127.114 18.66 127.381 19.18C127.421 19.26 127.468 19.26 127.521 19.18C127.814 18.6333 128.208 18.2267 128.701 17.96C129.208 17.6933 129.774 17.56 130.401 17.56Z" fill="white"/>
</svg>
