<svg width="40" height="42" viewBox="0 0 40 42" fill="none" xmlns="http://www.w3.org/2000/svg">
<path d="M0 20C0 8.9543 8.95431 0 20 0C31.0457 0 40 8.95431 40 20V22C40 33.0457 31.0457 42 20 42C8.95431 42 0 33.0457 0 22V20Z" fill="#1D9BF0"/>
<path d="M16.34 32.0775C25.21 32.0775 30.06 24.36 30.06 17.6715C30.06 17.451 30.06 17.2305 30.05 17.0205C30.99 16.3065 31.81 15.414 32.46 14.3955C31.6 14.7945 30.67 15.0675 29.69 15.1935C30.69 14.5635 31.45 13.5765 31.81 12.39C30.88 12.9675 29.85 13.3875 28.75 13.6185C27.87 12.6315 26.62 12.0225 25.23 12.0225C22.57 12.0225 20.41 14.2905 20.41 17.0835C20.41 17.4825 20.45 17.871 20.54 18.2385C16.53 18.0285 12.98 16.0125 10.6 12.9465C10.19 13.692 9.94997 14.5635 9.94997 15.4875C9.94997 17.241 10.8 18.795 12.1 19.698C11.31 19.677 10.57 19.446 9.91997 19.068C9.91997 19.089 9.91997 19.11 9.91997 19.131C9.91997 21.588 11.58 23.625 13.79 24.0975C13.39 24.213 12.96 24.276 12.52 24.276C12.21 24.276 11.91 24.2445 11.61 24.1815C12.22 26.1975 14 27.657 16.11 27.699C14.46 29.0535 12.38 29.862 10.12 29.862C9.72997 29.862 9.34997 29.841 8.96997 29.7885C11.08 31.2375 13.62 32.0775 16.34 32.0775Z" fill="white"/>
</svg>
