<svg xmlns="http://www.w3.org/2000/svg" xmlns:xlink="http://www.w3.org/1999/xlink" version="1.1" id="Слой_1" x="0px" y="0px" width="44px" height="44px" viewBox="0 0 44 44" enable-background="new 0 0 44 44" xml:space="preserve">
<path fill="#ffffff" d="M31.693,27.549l-1.526,1.821c-2.185-1.867-5.022-2.993-8.126-2.993c-3.104,0-5.942,1.126-8.128,2.999l-1.531-1.823  c2.604-2.22,5.973-3.554,9.658-3.554C25.725,23.999,29.096,25.336,31.693,27.549L31.693,27.549z M37.844,20.475l-0.246,0.298v-0.001  L37.844,20.475z M37.594,20.775L37.594,20.775l-0.101,0.123l-0.002-0.001l0.1-0.122H37.594z M22.041,15.31  c5.82,0,11.156,2.059,15.325,5.484l-1.527,1.819c-3.756-3.076-8.563-4.926-13.798-4.926c-5.233,0-10.043,1.851-13.803,4.926  L6.71,20.794C10.883,17.368,16.218,15.31,22.041,15.31z M41.473,15.907L43,14.086C37.255,9.418,29.925,6.62,21.943,6.62  C14.014,6.62,6.732,9.381,1,13.992l1.528,1.822c5.322-4.267,12.068-6.816,19.415-6.816C29.343,8.998,36.135,11.586,41.473,15.907  L41.473,15.907z M20.195,36.637c-0.476-0.478-0.744-1.123-0.744-1.797s0.269-1.318,0.744-1.796c0.477-0.476,1.123-0.744,1.796-0.744  c0.674,0,1.319,0.269,1.795,0.744c0.478,0.478,0.746,1.122,0.746,1.796s-0.269,1.319-0.746,1.797  c-0.476,0.477-1.121,0.743-1.795,0.743C21.316,37.38,20.672,37.111,20.195,36.637z"/>
</svg>