<svg width="40" height="42" viewBox="0 0 40 42" fill="none" xmlns="http://www.w3.org/2000/svg">
<path d="M0 20C0 8.9543 8.95431 0 20 0V0C31.0457 0 40 8.95431 40 20V22C40 33.0457 31.0457 42 20 42V42C8.95431 42 0 33.0457 0 22V20Z" fill="#FF0000"/>
<path d="M33.6985 13.7869C33.369 12.5018 32.404 11.4886 31.1801 11.1426C28.9441 10.5 20 10.5 20 10.5C20 10.5 11.0559 10.5 8.8199 11.1178C7.61951 11.4638 6.63096 12.5018 6.30144 13.7869C5.71301 16.1348 5.71301 21.0034 5.71301 21.0034C5.71301 21.0034 5.71301 25.8967 6.30144 28.2198C6.63096 29.505 7.59597 30.5182 8.8199 30.8642C11.0795 31.5068 20 31.5068 20 31.5068C20 31.5068 28.9441 31.5068 31.1801 30.8889C32.404 30.543 33.369 29.5297 33.6985 28.2446C34.287 25.8967 34.287 21.0281 34.287 21.0281C34.287 21.0281 34.3105 16.1348 33.6985 13.7869Z" fill="white"/>
<path d="M17.152 25.5012L24.5897 21.0033L17.152 16.5054V25.5012Z" fill="#FF0000"/>
</svg>
